<?xml version="1.0" encoding="iso-8859-1"?>
<!-- Generator: Adobe Illustrator 17.1.0, SVG Export Plug-In . SVG Version: 6.00 Build 0)  -->
<!DOCTYPE svg PUBLIC "-//W3C//DTD SVG 1.1//EN" "http://www.w3.org/Graphics/SVG/1.1/DTD/svg11.dtd">
<svg preserveAspectRatio="xMidYMid meet" data-bbox="9.999 17.5 180.001 165" viewBox="9.999 17.5 180.001 165" height="200" width="200" xmlns="http://www.w3.org/2000/svg" data-type="color" role="presentation" aria-hidden="true" aria-labelledby="svgcid-tidop0c7zow1"><defs><style>#comp-kvha5ox3 svg [data-color="1"] {fill: #000000;}</style></defs><title id="svgcid-tidop0c7zow1"></title>
    <g>
        <path d="M58.065 135.421l14.65 47.079 22.379-7.021-12.492-40.057H58.065zm37.846-86.415H49.815c-22.695 0-41.009 18.606-39.755 41.302 1.137 20.569 18.179 37.012 38.99 37.012h46.851c4.318 0 7.819-3.506 7.819-7.831v-62.66c-.089-4.317-3.59-7.823-7.809-7.823zm86.27-31.506c-4.314 0-7.819 3.511-7.819 7.831 0 0-20.851 27.815-62.552 31.056v63.372c41.701 3.241 62.552 31.056 62.552 31.056 0 4.321 3.505 7.831 7.819 7.831s7.819-3.511 7.819-7.831V25.331c0-4.32-3.505-7.831-7.819-7.831z" fill="#2c4c34" data-color="1"></path>
    </g>
</svg>