<?xml version="1.0" encoding="iso-8859-1"?>
<!-- Generator: Adobe Illustrator 17.1.0, SVG Export Plug-In . SVG Version: 6.00 Build 0)  -->
<!DOCTYPE svg PUBLIC "-//W3C//DTD SVG 1.1//EN" "http://www.w3.org/Graphics/SVG/1.1/DTD/svg11.dtd">
<svg preserveAspectRatio="xMidYMid meet" data-bbox="10 25 180 150" viewBox="10 25 180 150" height="200" width="200" xmlns="http://www.w3.org/2000/svg" data-type="color" role="presentation" aria-hidden="true" aria-labelledby="svgcid-tnwosi7igahu"><defs><style>#comp-kvha5ox42 svg [data-color="1"] {fill: #000000;}</style></defs><title id="svgcid-tnwosi7igahu"></title>
    <g>
        <path d="M142.229 44.161c1.984 2.71 3.872 5.516 5.518 8.468 21.344 9.435 36.252 30.823 36.252 55.597 0 33.484-27.249 60.726-60.742 60.726-5.13 0-10.116-.629-14.859-1.839-3.098 1.258-6.244 2.371-9.486 3.29A66.794 66.794 0 0 0 123.257 175C160.089 175 190 145.048 190 108.226c.048-30.242-20.135-55.839-47.771-64.065z" fill="#2c4c34" data-color="1"></path>
        <path d="M173.786 108.226c0-16.016-7.454-30.29-19.118-39.581a80.761 80.761 0 0 1 3.582 23.806c0 27.387-13.697 51.629-34.558 66.29 27.685-.241 50.094-22.741 50.094-50.515z" fill="#2c4c34" data-color="1"></path>
        <path d="M144.843 92.452c0-37.21-30.25-67.452-67.421-67.452S10 55.242 10 92.452s30.25 67.452 67.421 67.452 67.422-30.243 67.422-67.452zm-67.422 61.354c-33.832 0-61.323-27.532-61.323-61.355S43.59 31.097 77.421 31.097s61.323 27.532 61.323 61.355-27.491 61.354-61.323 61.354z" fill="#2c4c34" data-color="1"></path>
        <path d="M77.421 41.452c-28.169 0-51.014 22.839-51.014 51s22.845 51 51.014 51 51.014-22.839 51.014-51-22.845-51-51.014-51zm12.633 70.5c-2.13 2.758-5.034 4.597-8.505 5.565v6.81h-5.808v-6.616c-4.031-.677-7.225-2.129-9.403-4.306-2.178-2.177-3.824-5.565-4.84-10.113l7.018-1.452c.968 3.242 2.13 5.516 3.485 6.919 1.452 1.306 3.388 1.984 5.76 1.984 2.323 0 4.308-.774 5.856-2.274 1.549-1.5 2.323-3.387 2.323-5.758 0-2.081-.629-3.774-1.936-5.081-.678-.63-1.646-1.307-2.904-2.082-1.307-.774-2.904-1.597-4.937-2.516-4.114-1.839-6.824-3.532-8.131-5.081-2.081-2.323-3.098-5.081-3.098-8.323 0-1.548.242-2.952.726-4.258s1.21-2.516 2.13-3.581 2.081-1.984 3.436-2.806c1.355-.774 2.904-1.403 4.999-1.839v-6.206h4.84v6.109c2.842.387 4.875 1.21 6.472 2.468s3.098 3.194 4.55 5.758l-6.195 3.484c-1.888-3.387-4.308-5.081-7.308-5.081-1.888 0-3.436.532-4.646 1.645s-1.839 2.468-1.839 4.161c0 1.5.484 2.758 1.5 3.774.968.968 2.952 2.129 5.905 3.484 2.565 1.161 4.695 2.274 6.389 3.29s2.952 2.032 3.775 3c2.42 2.613 3.582 5.71 3.582 9.387.095 3.583-1.018 6.777-3.196 9.535z" fill="#2c4c34" data-color="1"></path>
    </g>
</svg>