<?xml version="1.0" encoding="iso-8859-1"?>
<!-- Generator: Adobe Illustrator 17.1.0, SVG Export Plug-In . SVG Version: 6.00 Build 0)  -->
<!DOCTYPE svg PUBLIC "-//W3C//DTD SVG 1.1//EN" "http://www.w3.org/Graphics/SVG/1.1/DTD/svg11.dtd">
<svg preserveAspectRatio="none" data-bbox="14 0 171.973 200" xmlns="http://www.w3.org/2000/svg" width="200" height="200" viewBox="14 0 171.973 200" role="presentation" aria-hidden="true">
    <g>
        <path fill="#2c4c34" d="M181.4 110c-4.8-4.7-16.4-7.1-22.9-.7l-8.5 8.5-29 29c-.4.4-.7.9-.9 1.4l-11.5 29.2c-.6 1.5-.2 3.3.9 4.5.8.8 1.9 1.2 2.9 1.2.5 0 1-.1 1.5-.3l29.2-11.5c.5-.2 1-.5 1.4-.9l29-29 8.5-8.5c6.5-6.4 4.1-18.1-.6-22.9zm-5.9 5.9c2.2 2.2 3.3 8.5.7 11.1l-2.6 2.6-11.8-11.8 2.6-2.6c2.6-2.6 8.9-1.4 11.1.7zm-43.2 31.4l11.8-11.8 11.8 11.8-11.8 11.8-11.8-11.8zm-5.4 6.4l10.8 10.8-17.9 7.1 7.1-17.9zm34.9-12.3L150 129.6l5.9-5.9 11.8 11.8-5.9 5.9zm-64.5 50.3h-75V58.3H64c2.3 0 4.2-1.9 4.2-4.2V8.3h87.5v79.2c0 2.3 1.9 4.2 4.2 4.2s4.2-1.9 4.2-4.2V4.2c0-2.3-1.9-4.2-4.2-4.2H61.4c-1.1 0-2.2.5-3 1.3L15.2 45.6c-.8.8-1.2 1.8-1.2 2.9v147.3c0 2.3 1.9 4.2 4.2 4.2h79.2c2.3 0 4.2-1.9 4.2-4.2s-2-4.1-4.3-4.1zm-37.5-180V50H22.5l37.3-38.3z"></path>
    </g>
</svg>