<?xml version="1.0" encoding="iso-8859-1"?>
<!-- Generator: Adobe Illustrator 17.1.0, SVG Export Plug-In . SVG Version: 6.00 Build 0)  -->
<!DOCTYPE svg PUBLIC "-//W3C//DTD SVG 1.1//EN" "http://www.w3.org/Graphics/SVG/1.1/DTD/svg11.dtd">
<svg preserveAspectRatio="xMidYMid meet" data-bbox="37.6 30.125 124.9 139.975" viewBox="37.6 30.125 124.9 139.975" xmlns="http://www.w3.org/2000/svg" data-type="color" role="presentation" aria-hidden="true" aria-labelledby="svgcid--grzeeuebbnjs"><defs><style>#comp-kx6gls0v svg [data-color="1"] {fill: #000000;}</style></defs><title id="svgcid--grzeeuebbnjs"></title>
    <g>
        <path d="M156.5 60.5h-10.3c3.5-3.4 5.4-7.9 5.4-11.6 0-6.2-5-13.6-19-13.6-10.1 0-21.8 7.4-30.1 16.1 2.5-5.6 7.6-12.5 12.2-17.2.9-.9.9-2.6 0-3.4-.9-.9-2.5-.9-3.4 0-4.3 4.4-9.8 11.5-12.8 18-3.1-6.5-8.7-13.6-12.9-18-.9-.9-2.5-.9-3.4 0-.9.9-.9 2.6 0 3.4 4.6 4.8 9.7 11.7 12.2 17.2-8.3-8.6-20.1-16-30.1-16-14.1 0-19 7.3-19 13.6 0 3.7 2 8.1 5.4 11.6h-7.1c-3.3 0-6 2.7-6 6.1v22.9c0 3.2 2.5 5.9 5.6 6.1V164c0 3.3 2.7 6.1 6 6.1h101.7c3.3 0 6-2.7 6-6.1V95.5c3.1-.2 5.6-2.8 5.6-6.1V66.6c0-3.4-2.7-6.1-6-6.1zm-6.1 22.9h-48V72.6h48v10.8zm-17.8-43.3c9 0 14.4 3.2 14.4 8.8 0 3.6-3.7 10.2-10.4 11.6h-35.5c7.5-10.1 20.9-20.4 31.5-20.4zM50 48.9c0-4.2 3.8-8.8 14.4-8.8 10.5 0 24 10.2 31.4 20.3H60.4C53.6 59.1 50 52.5 50 48.9zm-.4 23.7h48v10.7h-48V72.6zm5.6 22.9h42.4v62.4H55.2V95.5zm89.6 62.3h-42.4V95.6h42.4v62.2z" fill="#2c4c34" data-color="1"></path>
    </g>
</svg>