<?xml version="1.0" encoding="iso-8859-1"?>
<!-- Generator: Adobe Illustrator 17.1.0, SVG Export Plug-In . SVG Version: 6.00 Build 0)  -->
<!DOCTYPE svg PUBLIC "-//W3C//DTD SVG 1.1//EN" "http://www.w3.org/Graphics/SVG/1.1/DTD/svg11.dtd">
<svg preserveAspectRatio="xMidYMid meet" data-bbox="31.752 48.245 136.5 103.501" viewBox="31.752 48.245 136.5 103.501" height="200" width="200" xmlns="http://www.w3.org/2000/svg" data-type="color" role="presentation" aria-hidden="true" aria-labelledby="svgcid-ldyon6axpvy4"><defs><style>#comp-kx6gmi19 svg [data-color="1"] {fill: #000000;}</style></defs><title id="svgcid-ldyon6axpvy4"></title>
    <g>
        <path d="M83.743 127.961c0-.1 1.596-12.34-8.876-24.581C66.09 92.93 39.96 64.965 32.879 62.676c-.1-.199-.199-.498-.199-.597.399-.1 2.693.498 13.265 9.255C59.21 82.281 67.587 89.148 72.674 93.228c1.596 1.294 2.793 2.289 3.69 2.986l.199.199c3.989 3.284 16.057 13.137 20.445 30.055v.1s.698 1.194 1.795 1.095c1.297-.1 2.593-1.692 3.89-4.876 2.892-7.165 11.469-18.61 14.362-20.501 3.191-2.09 27.427-19.207 29.322-26.97 2.394-2.687 19.348-21.894 20.246-24.78.199-.498.399-.995.598-1.194.199.896.1 4.379-4.987 17.913-9.574 25.377-17.055 29.259-17.852 29.557-1.596.697-4.887 4.18-8.378 7.763-2.892 3.085-5.984 6.27-7.081 6.767-2.693 1.095-9.874 11.345-10.871 13.435-.299.597-6.084 10.848-1.097 14.032 0 0 2.992 2.587 1.795 6.17-.1.398-.399.896-.598 1.294l-.399.597.698.1c.1 0 1.496.299 2.793 2.09-1.197-.697-2.992-1.393-5.785-1.692h-.199l-.1.1s-3.79 1.99-9.674.995c-.1 0-12.666-4.478-19.049-10.45-.299-.199-6.483-4.478-10.971-6.27 2.793-.398 6.882-1.294 8.178-3.583l.099-.199z" fill="#2c4c34" data-color="1"></path>
        <path d="M98.803 126.667c.399 0 1.496-.498 2.992-4.279 2.892-7.364 11.769-19.108 14.761-20.999 2.693-1.791 27.327-19.207 28.923-26.472v-.1l.1-.1c7.779-8.758 19.548-22.392 20.146-24.482.299-.796.798-1.891 1.496-1.99.299 0 .598 0 .698.299 1.496 1.692-2.394 12.639-4.787 19.108-7.38 19.605-14.461 28.463-18.351 30.154-1.396.597-4.887 4.279-7.979 7.563-3.291 3.483-6.084 6.469-7.38 6.966-1.147.498-3.471 3.185-5.635 6.021s-4.189 5.822-4.737 6.917c0 .1-5.685 9.952-1.396 12.738.1.1 3.59 3.085 2.094 7.265-.1.299-.199.597-.399.896.997.398 2.992 1.592 4.289 5.275l-.898.299s-1.097-2.787-7.081-3.384c-.798.398-4.488 1.99-10.273.995-.598-.199-12.965-4.578-19.448-10.649-.1 0-9.275-6.369-13.065-6.767v-.995c2.294-.1 8.477-.896 9.973-3.284.1-1.095.997-12.34-8.677-23.686-11.37-13.335-35.904-38.812-41.689-40.503l-.199-.1-.1-.199c-.199-.299-.798-1.393-.1-1.99.499-.498 1.695-1.393 14.561 9.255 13.265 10.947 21.642 17.814 26.729 21.894 1.596 1.294 2.793 2.289 3.69 2.986l.199.199c3.989 3.284 16.157 13.336 20.745 30.552 0 .199.399.597.798.597z" fill="#2c4c34" data-color="1"></path>
    </g>
</svg>