<?xml version="1.0" encoding="iso-8859-1"?>
<!-- Generator: Adobe Illustrator 17.1.0, SVG Export Plug-In . SVG Version: 6.00 Build 0)  -->
<!DOCTYPE svg PUBLIC "-//W3C//DTD SVG 1.1//EN" "http://www.w3.org/Graphics/SVG/1.1/DTD/svg11.dtd">
<svg preserveAspectRatio="xMidYMid meet" data-bbox="23 49.5 153.999 101" viewBox="23 49.5 153.999 101" height="200" width="200" xmlns="http://www.w3.org/2000/svg" data-type="color" role="presentation" aria-hidden="true" aria-labelledby="svgcid--dm7wst-hllu4g"><title id="svgcid--dm7wst-hllu4g"></title>
    <g>
        <path d="M174.829 63.229a3.999 3.999 0 0 0-4.155.303l-40.128 28.691V66.786c0-9.531-7.749-17.286-17.273-17.286h-73C30.748 49.5 23 57.255 23 66.786v66.428c0 9.531 7.748 17.286 17.272 17.286h73c9.524 0 17.273-7.755 17.273-17.286v-25.437l40.128 28.691a3.999 3.999 0 0 0 6.326-3.254V66.786a3.996 3.996 0 0 0-2.17-3.557zm-52.283 69.985c0 5.12-4.16 9.286-9.273 9.286h-73c-5.113 0-9.272-4.166-9.272-9.286V66.786c0-5.12 4.159-9.286 9.272-9.286h73c5.113 0 9.273 4.166 9.273 9.286v66.428zM169 125.437L133.423 100 169 74.563v50.874z" fill="#2c4c34" data-color="1"></path>
    </g>
</svg>